<svg width="174" height="36" viewBox="0 0 174 36" fill="none" xmlns="http://www.w3.org/2000/svg">
<path fill-rule="evenodd" clip-rule="evenodd" d="M27.2668 0.862751V7.05781C27.2668 7.72181 26.5335 8.13639 25.9484 7.8027L20.6678 4.8164C20.3959 4.66472 20.2272 4.37823 20.2272 4.07151V3.84905C20.2272 3.54233 20.3959 3.25921 20.6678 3.10416L25.9484 0.117862C26.5335 -0.215822 27.2668 0.198754 27.2668 0.862751ZM20.2271 5.68275V5.70971L15.4354 2.9998C14.8502 2.66948 14.117 3.08406 14.117 3.74469V9.71729C14.117 10.024 14.2857 10.3105 14.5576 10.4622L19.2495 13.1148C19.5215 13.2698 19.8588 13.2698 20.1307 13.1148L25.4354 10.115C26.0206 9.7847 26.0206 8.95555 25.4354 8.62187L20.2271 5.68275ZM7.97596 13.1416L12.6885 10.4755C12.9605 10.3205 13.1291 10.0373 13.1291 9.73062V3.75802C13.1291 3.09402 12.3959 2.67944 11.8107 3.01313L1.8142 8.66216C1.22901 8.99247 1.22901 9.82163 1.8142 10.1553L7.09473 13.1416C7.37011 13.2933 7.70402 13.2933 7.97596 13.1416ZM7.03962 20.0142V14.719C7.03962 14.4123 6.87094 14.1258 6.599 13.9741L1.31847 10.9878C0.733277 10.6575 6.10352e-05 11.0721 6.10352e-05 11.7327V23.0005C6.10352e-05 23.6645 0.733277 24.079 1.31847 23.7454L6.599 20.7591C6.87439 20.6074 7.03962 20.3243 7.03962 20.0142ZM7.92445 21.6219L12.6886 24.315C12.964 24.47 13.1292 24.7531 13.1292 25.0632V31.0358C13.1292 31.6965 12.396 32.111 11.8108 31.7807L1.76269 26.1014C1.17749 25.7677 1.17749 24.9385 1.76269 24.6082L7.04321 21.6219C7.31516 21.4669 7.65251 21.4669 7.92445 21.6219ZM20.2272 14.6684V20.0646C20.2272 20.3713 20.3959 20.6578 20.6679 20.8095L25.9484 23.7958C26.5336 24.1261 27.2668 23.7116 27.2668 23.0509V11.6821C27.2668 11.0181 26.5336 10.6035 25.9484 10.9372L20.6679 13.9235C20.3925 14.0752 20.2272 14.3617 20.2272 14.6684ZM14.5543 24.3281L19.2979 21.6452C19.5698 21.4935 19.9071 21.4935 20.1791 21.6418L25.4596 24.6281C26.0448 24.9618 26.0448 25.791 25.4596 26.1213L15.4321 31.7905C14.8469 32.1242 14.1137 31.7096 14.1137 31.0456V25.073C14.1137 24.7663 14.2824 24.4832 14.5543 24.3281Z" fill="#E86163"/>
<path d="M51.9584 1.88737V26.1182C51.9584 26.8395 50.9636 27.5979 49.597 27.5979C48.4163 27.5979 47.4593 26.8395 47.4593 26.1182V25.07C46.7227 26.5497 44.6917 27.9215 42.3337 27.9215C38.9051 27.9215 35.8793 24.3824 35.8793 20.5197V17.557C35.8793 13.5495 38.8294 10.2261 42.4438 10.2261C44.7296 10.2261 46.3888 11.5608 47.2011 12.9697V1.88737C47.2011 1.02114 48.2717 0.441406 49.597 0.441406C50.9636 0.441406 51.9584 1.02114 51.9584 1.88737ZM40.6366 20.5197C40.6366 22.1814 42.1134 23.8431 43.8449 23.8431C45.7244 23.8431 47.2011 21.9286 47.2011 21.1703V17.5604C47.2011 15.5381 45.4662 14.3112 43.8827 14.3112C42.0755 14.3112 40.6366 15.9358 40.6366 17.5604V20.5197Z" fill="#4E4F52"/>
<path d="M54.578 20.5939V11.9249C54.578 11.2036 55.6486 10.4452 56.9739 10.4452C58.2269 10.4452 59.3353 11.2036 59.3353 11.9249V20.5905C59.3353 22.2151 60.7742 23.8397 62.5815 23.8397C64.3887 23.8397 65.7897 22.2522 65.7897 20.5905V11.8912C65.7897 11.1328 66.8947 10.4452 68.189 10.4452C69.59 10.4452 70.5504 11.1328 70.5504 11.8912V20.5939C70.5504 24.4936 66.936 27.9248 62.5849 27.9248C58.1925 27.9248 54.578 24.4565 54.578 20.5939Z" fill="#4E4F52"/>
<path d="M82.1648 14.3078C80.0272 14.3078 77.9239 16.3672 77.9239 19.6535V26.1182C77.9239 26.8395 76.8189 27.5979 75.4902 27.5979C74.127 27.5979 73.1666 26.8395 73.1666 26.1182V11.8912C73.1666 11.0249 74.127 10.4452 75.4902 10.4452C76.6709 10.4452 77.6279 11.0216 77.6279 11.8912V13.3708C78.3645 11.817 80.1339 10.2295 82.1648 10.2295H83.3077C84.1924 10.2295 85.0426 11.1699 85.0426 12.2518C85.0426 13.3708 84.1958 14.3112 83.3077 14.3112H82.1648V14.3078Z" fill="#4E4F52"/>
<path d="M91.0908 4.34113C91.0908 5.5343 89.9479 6.61625 88.509 6.61625C87.0323 6.61625 85.8894 5.5343 85.8894 4.34113C85.8894 3.11425 87.0323 2.06601 88.509 2.06601C89.9479 2.06601 91.0908 3.11425 91.0908 4.34113ZM90.9049 11.8912V26.1182C90.9049 26.8395 89.8343 27.5979 88.509 27.5979C87.1424 27.5979 86.1476 26.8395 86.1476 26.1182V11.8912C86.1476 11.0249 87.1424 10.4452 88.509 10.4452C89.8343 10.4452 90.9049 11.0216 90.9049 11.8912Z" fill="#4E4F52"/>
<path d="M107.5 17.2705V26.1182C107.5 26.9474 106.506 27.5979 105.177 27.5979C103.962 27.5979 103.039 26.9474 103.039 26.1182V25.07C101.71 26.5497 99.9789 27.9215 97.4316 27.9215C94.812 27.9215 92.6364 26.4047 92.6364 23.1184C92.6364 18.9659 96.1407 17.8098 101.228 17.8098H102.74V17.3413C102.74 15.7875 101.927 14.018 99.4935 14.018C96.6536 14.018 96.1751 15.137 95.2904 15.137C94.2199 15.137 93.6691 13.873 93.6691 12.8248C93.6691 11.3451 96.9496 10.2261 99.5692 10.2261C105.325 10.2295 107.5 13.6236 107.5 17.2705ZM102.743 20.2333H102.189C99.7173 20.2333 97.3937 20.486 97.3937 22.5084C97.3937 23.8431 98.2405 24.4599 99.3489 24.4599C100.86 24.4599 102.743 22.7612 102.743 20.9916V20.2333Z" fill="#4E4F52"/>
<path d="M114.877 26.1182C114.877 26.8395 113.772 27.5979 112.481 27.5979C111.08 27.5979 110.12 26.8395 110.12 26.1182V11.8912C110.12 11.0249 111.08 10.4452 112.481 10.4452C113.624 10.4452 114.585 11.0216 114.585 11.8912V12.9731C115.287 11.5642 117.056 10.2295 119.528 10.2295C122.922 10.2295 125.872 13.5528 125.872 17.5604V26.1182C125.872 27.0923 124.653 27.5979 123.476 27.5979C122.371 27.5979 121.115 27.0923 121.115 26.1182V17.5604C121.115 15.9358 119.676 14.3112 117.907 14.3112C116.395 14.3112 114.881 15.5381 114.881 17.5604V26.1182H114.877Z" fill="#4E4F52"/>
<path d="M131.29 11.3856V13.0472C132.103 11.6384 133.8 10.3036 136.233 10.3036C139.886 10.3036 142.87 13.3371 142.87 17.0582V20.995C142.87 24.5711 139.81 27.8574 136.344 27.8574C134.092 27.8574 132.175 26.5564 131.366 25.0767V35.0805C131.366 35.5153 130.85 35.9838 130.147 35.9838C129.483 35.9838 128.967 35.5153 128.967 35.0805V11.3856C128.967 10.88 129.483 10.5193 130.147 10.5193C130.774 10.516 131.29 10.88 131.29 11.3856ZM140.474 17.0548C140.474 14.7426 138.371 12.4675 135.827 12.4675C133.614 12.4675 131.366 14.1663 131.366 17.0548V22.1106C131.366 23.1926 133.283 25.6868 135.903 25.6868C138.337 25.6868 140.474 23.3746 140.474 20.9916V17.0548Z" fill="#4E4F52"/>
<path d="M157.548 17.2705V26.6609C157.548 27.2035 157.07 27.6013 156.368 27.6013C155.741 27.6013 155.263 27.2035 155.263 26.6609V25.0734C153.972 26.5193 152.165 27.8541 149.693 27.8541C146.891 27.8541 144.677 26.3373 144.677 23.0881C144.677 19.1513 148.144 18.1401 153.27 18.1401H155.149V17.2739C155.149 14.9617 153.968 12.363 150.798 12.363C148.326 12.363 147.442 13.4113 146.853 13.4113C146.227 13.4113 145.893 12.69 145.893 12.1473C145.893 11.2069 148.512 10.307 150.87 10.307C155.817 10.3003 157.548 13.6607 157.548 17.2705ZM155.152 19.7614H153.603C150.209 19.7614 147.077 20.0883 147.077 22.8656C147.077 24.9588 148.478 25.8621 150.285 25.8621C152.646 25.8621 155.152 23.6948 155.152 22.0702V19.7614Z" fill="#4E4F52"/>
<path d="M159.135 11.7462C159.063 11.6384 159.025 11.5305 159.025 11.4226C159.025 10.8092 159.872 10.3036 160.502 10.3036C160.87 10.3036 161.239 10.4486 161.349 10.8092L166.402 24.0993L171.159 10.8092C171.307 10.4486 171.638 10.3036 171.972 10.3036C172.56 10.3036 173.445 10.7721 173.445 11.4597C173.445 11.5305 173.445 11.6754 173.373 11.7496L167.655 26.917C166.178 30.8168 164.337 35.9804 160.168 35.9804C159.541 35.9804 159.063 35.7277 159.063 34.9322C159.063 34.3895 159.249 33.8503 159.8 33.8503C162.123 33.8503 164.226 30.6348 165.146 26.88L159.135 11.7462Z" fill="#4E4F52"/>
</svg>
